<svg xmlns:xlink="http://www.w3.org/1999/xlink" xmlns="http://www.w3.org/2000/svg" viewBox="0 0 111.204 36" width="111.204" height="36" class="LogoPreview_base__3tiaW"><g fill="#BF1F1F" color="#bf1f1f" transform="translate(0 6) scale(0.24)"><svg width="72.613" height="100.0" x="0.0" y="0.0" viewBox="0 0 72.613 100" fill="#BF1F1F"><circle cx="23.177" cy="18.7" r="4.173" fill="#BF1F1F"></circle><circle cx="49.436" cy="18.7" r="4.173" fill="#BF1F1F"></circle><path d="M0,0v39.225h31.896v3.34L0,42.567V100h18.544l14.114-14.114l-8.111-8.11l8.111-8.111l-2.371-2.37l-10.48,10.481l4.598,4.599  l-9.279,9.28H8.346V50.912h55.921v40.742h-6.778l-9.28-9.28l4.599-4.599L42.325,67.294l-2.371,2.37l8.112,8.111l-8.112,8.11  L54.069,100h18.544V42.567l-31.896-0.001v-3.34h31.896V0H0z M64.267,30.879H8.346V7.75h55.921V30.879z" fill="#BF1F1F"></path><rect x="31.486" y="72.954" transform="matrix(0.7071 -0.7071 0.7071 0.7071 -44.3617 48.4522)" width="9.641" height="9.642" fill="#BF1F1F"></rect></svg></g><path fill="#000000" fill-rule="nonzero" d="M0 16.51L0 0L5.30 0L5.30 12.29L13.78 12.29L13.78 16.51L0 16.51ZM21.94 3.55Q24.84 3.55 26.66 4.52Q28.49 5.50 28.49 7.68L28.49 7.68L28.49 12.62Q28.49 13.03 28.68 13.30Q28.87 13.56 29.26 13.56L29.26 13.56L30.12 13.56L30.12 16.32Q30.05 16.37 29.75 16.48Q29.45 16.58 28.90 16.69Q28.34 16.80 27.62 16.80L27.62 16.80Q26.23 16.80 25.33 16.38Q24.43 15.96 24.10 15.22L24.10 15.22Q23.18 15.94 22.06 16.37Q20.93 16.80 19.42 16.80L19.42 16.80Q14.95 16.80 14.95 13.25L14.95 13.25Q14.95 11.40 15.95 10.43Q16.94 9.46 18.82 9.10Q20.69 8.74 23.71 8.74L23.71 8.74L23.71 8.11Q23.71 7.37 23.20 6.98Q22.68 6.60 21.86 6.60L21.86 6.60Q21.12 6.60 20.58 6.86Q20.04 7.13 20.04 7.70L20.04 7.70L20.04 7.80L15.34 7.80Q15.31 7.68 15.31 7.46L15.31 7.46Q15.31 5.66 17.03 4.61Q18.74 3.55 21.94 3.55L21.94 3.55ZM23.71 10.99Q21.67 10.99 20.70 11.44Q19.73 11.88 19.73 12.62L19.73 12.62Q19.73 13.82 21.36 13.82L21.36 13.82Q22.30 13.82 23.00 13.32Q23.71 12.82 23.71 12.07L23.71 12.07L23.71 10.99ZM42.86 5.33L37.49 13.27L43.08 13.27L43.08 16.51L30.72 16.51L30.72 14.95L36.05 7.08L31.01 7.08L31.01 3.84L42.86 3.84L42.86 5.33ZM51.29 3.55Q54.19 3.55 56.02 4.52Q57.84 5.50 57.84 7.68L57.84 7.68L57.84 12.62Q57.84 13.03 58.03 13.30Q58.22 13.56 58.61 13.56L58.61 13.56L59.47 13.56L59.47 16.32Q59.40 16.37 59.10 16.48Q58.80 16.58 58.25 16.69Q57.70 16.80 56.98 16.80L56.98 16.80Q55.58 16.80 54.68 16.38Q53.78 15.96 53.45 15.22L53.45 15.22Q52.54 15.94 51.41 16.37Q50.28 16.80 48.77 16.80L48.77 16.80Q44.30 16.80 44.30 13.25L44.30 13.25Q44.30 11.40 45.30 10.43Q46.30 9.46 48.17 9.10Q50.04 8.74 53.06 8.74L53.06 8.74L53.06 8.11Q53.06 7.37 52.55 6.98Q52.03 6.60 51.22 6.60L51.22 6.60Q50.47 6.60 49.93 6.86Q49.39 7.13 49.39 7.70L49.39 7.70L49.39 7.80L44.69 7.80Q44.66 7.68 44.66 7.46L44.66 7.46Q44.66 5.66 46.38 4.61Q48.10 3.55 51.29 3.55L51.29 3.55ZM53.06 10.99Q51.02 10.99 50.05 11.44Q49.08 11.88 49.08 12.62L49.08 12.62Q49.08 13.82 50.71 13.82L50.71 13.82Q51.65 13.82 52.36 13.32Q53.06 12.82 53.06 12.07L53.06 12.07L53.06 10.99ZM68.74 3.53Q69.29 3.53 69.72 3.66Q70.15 3.79 70.15 3.82L70.15 3.82L70.15 7.82L68.62 7.82Q67.13 7.82 66.47 8.59Q65.81 9.36 65.81 10.87L65.81 10.87L65.81 16.51L61.03 16.51L61.03 3.84L64.94 3.84L65.26 5.76Q65.69 4.66 66.62 4.09Q67.56 3.53 68.74 3.53L68.74 3.53ZM78.62 3.55Q81.96 3.55 83.87 5.24Q85.78 6.94 85.78 10.18L85.78 10.18Q85.78 13.42 83.87 15.11Q81.96 16.80 78.62 16.80L78.62 16.80Q75.29 16.80 73.39 15.12Q71.50 13.44 71.50 10.18L71.50 10.18Q71.50 6.91 73.39 5.23Q75.29 3.55 78.62 3.55L78.62 3.55ZM78.62 6.79Q76.27 6.79 76.27 9.50L76.27 9.50L76.27 10.87Q76.27 13.56 78.62 13.56L78.62 13.56Q81 13.56 81 10.87L81 10.87L81 9.50Q81 6.79 78.62 6.79L78.62 6.79Z" transform="translate(25.428, 9.744)"></path></svg>